<svg id="Layer_1" data-name="Layer 1" xmlns="http://www.w3.org/2000/svg" xmlns:xlink="http://www.w3.org/1999/xlink" viewBox="0 0 344.7 96.53"><defs><style>.cls-1{fill:url(#New_Gradient_Swatch_16);}.cls-2{fill:url(#New_Gradient_Swatch_16-2);}.cls-3{fill:url(#New_Gradient_Swatch_16-3);}.cls-4{fill:url(#New_Gradient_Swatch_16-4);}.cls-5{fill:url(#New_Gradient_Swatch_16-5);}.cls-6{fill:url(#New_Gradient_Swatch_16-6);}.cls-7,.cls-8{stroke-miterlimit:10;stroke-width:1.41px;}.cls-7{fill:url(#New_Gradient_Swatch_16-7);stroke:url(#New_Gradient_Swatch_16-8);}.cls-8{fill:none;stroke:url(#linear-gradient);}</style><linearGradient id="New_Gradient_Swatch_16" x1="304.17" y1="66.59" x2="341.83" y2="28.93" gradientUnits="userSpaceOnUse"><stop offset="0" stop-color="#3f5d7e"/><stop offset="0.47" stop-color="#3c6387"/><stop offset="0.75" stop-color="#2b4768"/><stop offset="1" stop-color="#1d3150"/></linearGradient><linearGradient id="New_Gradient_Swatch_16-2" x1="0.46" y1="66.59" x2="38.12" y2="28.93" xlink:href="#New_Gradient_Swatch_16"/><linearGradient id="New_Gradient_Swatch_16-3" x1="101.6" y1="69.16" x2="139.07" y2="31.68" xlink:href="#New_Gradient_Swatch_16"/><linearGradient id="New_Gradient_Swatch_16-4" x1="149.66" y1="75.65" x2="192.59" y2="32.72" xlink:href="#New_Gradient_Swatch_16"/><linearGradient id="New_Gradient_Swatch_16-5" x1="202.11" y1="74.53" x2="250.81" y2="25.83" xlink:href="#New_Gradient_Swatch_16"/><linearGradient id="New_Gradient_Swatch_16-6" x1="254.96" y1="67.34" x2="309.17" y2="13.13" xlink:href="#New_Gradient_Swatch_16"/><linearGradient id="New_Gradient_Swatch_16-7" x1="62.57" y1="65.25" x2="100.31" y2="27.51" xlink:href="#New_Gradient_Swatch_16"/><linearGradient id="New_Gradient_Swatch_16-8" x1="61.95" y1="65.86" x2="101.14" y2="26.68" xlink:href="#New_Gradient_Swatch_16"/><linearGradient id="linear-gradient" x1="43.74" y1="48.95" x2="74.88" y2="48.95" gradientUnits="userSpaceOnUse"><stop offset="0" stop-color="#1d3150"/><stop offset="0.25" stop-color="#2b4768"/><stop offset="0.53" stop-color="#3c6387"/><stop offset="1" stop-color="#3f5d7e"/></linearGradient></defs><title>Artboard 30</title><path class="cls-1" d="M324,42.65h8.48v-2c0-6.11-3-9.52-8.48-9.52a50.92,50.92,0,0,0-14.5,2.59l-2.58-9.84C312.4,22.15,318.2,20.7,324,20.7c12.42,0,20.7,7.77,20.7,20V59.21c0,10.25-9.42,17.91-20.5,17.91-11.59,0-20.49-7.76-20.49-17.91C303.71,48.24,312,42.65,324,42.65Zm.2,24c5.18,0,8.28-3.72,8.28-7.45V51.55h-8.59c-5.79,0-7.86,3.52-7.86,7.45S318.72,66.66,324.2,66.66Z"/><path class="cls-2" d="M20.29,42.65h8.49v-2c0-6.11-3-9.52-8.49-9.52A50.86,50.86,0,0,0,5.8,33.75L3.21,23.91C8.7,22.15,14.49,20.7,20.29,20.7c12.42,0,20.7,7.77,20.7,20V59.21c0,10.25-9.42,17.91-20.49,17.91C8.9,77.12,0,69.36,0,59.21,0,48.24,8.28,42.65,20.29,42.65Zm.21,24c5.17,0,8.28-3.72,8.28-7.45V51.55H20.19c-5.8,0-7.87,3.52-7.87,7.45S15,66.66,20.5,66.66Z"/><path class="cls-3" d="M97.41,43c0-14.49,9.52-22.26,21.22-22.26S140,29,140,41V52.38H109.42v2c0,8.38,4,12.31,11,12.31A49.56,49.56,0,0,0,135,64.18l2.38,9.94a45,45,0,0,1-17,3c-13.67,0-23-7.87-23-22.77Zm30.43.52V41c0-5.59-3.62-9.83-9.21-9.83-5.38,0-9.21,3.93-9.21,10.56v1.76Z"/><path class="cls-4" d="M149.78,42.86c0-14.5,9.63-22.16,21.43-22.16s21.22,7.66,21.22,22.16V75.77H180.32V43.37c0-8.07-3.62-12.21-9.11-12.21s-9.42,4.14-9.42,12.21v32.4h-12Z"/><path class="cls-5" d="M199.78,21h12.11l4.76,33.64c.93,6.21,3.11,9.63,8,9.63h3.83L233.84,21H246L236,96.53h-11.9L227,74.69h-2.8c-12.21,0-17.91-7.77-19.56-19Z"/><path class="cls-6" d="M252.37,43.27c0-15.32,10-22.57,20.91-22.57a21.21,21.21,0,0,1,10.55,3.11V0h12.22V54.66c0,14.28-10.15,22.46-21.84,22.46s-21.84-8.18-21.84-22.46Zm21.84,23.39c5.48,0,9.62-4,9.62-12.52V34a20.61,20.61,0,0,0-9.52-2.79c-5.48,0-9.94,3.31-9.94,12.63V54.14C264.37,62.63,268.72,66.66,274.21,66.66Z"/><path class="cls-7" d="M94.07,21.28,76.47,76.62H73.94l-4.3-14.57c1.18-5,11.63-40.77,11.63-40.77Z"/><path class="cls-8" d="M73.94,76.62H64A2.29,2.29,0,0,1,61.79,75L44.7,21.28H57.5c0,.11,10.93,36.67,12.14,40.77Z"/></svg>