<svg xmlns="http://www.w3.org/2000/svg" xmlns:xlink="http://www.w3.org/1999/xlink" width="74.076" height="68.672" viewBox="0 0 74.076 68.672">
  <defs>
    <filter id="Path_1300" x="0" y="0" width="74.076" height="68.672" filterUnits="userSpaceOnUse">
      <feOffset dy="3" input="SourceAlpha"/>
      <feGaussianBlur stdDeviation="3" result="blur"/>
      <feFlood flood-opacity="0.161"/>
      <feComposite operator="in" in2="blur"/>
      <feComposite in="SourceGraphic"/>
    </filter>
  </defs>
  <g id="Group_3033" data-name="Group 3033" transform="translate(-122.967 -86.533)">
    <g transform="matrix(1, 0, 0, 1, 122.97, 86.53)" filter="url(#Path_1300)">
      <path id="Path_1300-2" data-name="Path 1300" d="M50.134,0H5.942A5.942,5.942,0,0,0,0,5.942v30.7a5.942,5.942,0,0,0,5.942,5.942H21.787l3.095,4.085,2.971,3.837a.371.371,0,0,0,.619,0l2.971-3.837,3.095-4.085h15.6a5.942,5.942,0,0,0,5.942-5.942V5.942A5.942,5.942,0,0,0,50.134,0Z" transform="translate(9 6)" fill="#fff"/>
    </g>
    <path id="Path_1302" data-name="Path 1302" d="M3.095,0H47.163a3.1,3.1,0,0,1,3.095,3.095v31.1a3.1,3.1,0,0,1-3.095,3.095H3.095A3.1,3.1,0,0,1,0,34.19V3.095A3.1,3.1,0,0,1,3.095,0Z" transform="translate(134.892 95.182)" fill="#00e5ff"/>
  </g>
</svg>
